<?xml version="1.0" standalone="no"?>
<!DOCTYPE svg PUBLIC "-//W3C//DTD SVG 20010904//EN"
 "http://www.w3.org/TR/2001/REC-SVG-20010904/DTD/svg10.dtd">
<svg version="1.0" xmlns="http://www.w3.org/2000/svg"
 width="512.000000pt" height="512.000000pt" viewBox="0 0 512.000000 512.000000"
 preserveAspectRatio="xMidYMid meet">
<metadata>
Created by potrace 1.16, written by Peter Selinger 2001-2019
</metadata>
<g transform="translate(0.000000,512.000000) scale(0.100000,-0.100000)"
fill="#000000" stroke="none">
<path d="M560 4822 l0 -219 314 -419 315 -419 -477 -5 c-527 -6 -503 -2 -569
-72 -67 -70 -63 15 -63 -1290 0 -1123 1 -1185 19 -1223 18 -41 75 -98 117
-117 l24 -11 0 -214 c0 -213 0 -215 -25 -247 -37 -48 -55 -110 -55 -187 0
-183 122 -309 305 -317 106 -5 177 21 245 88 106 107 123 301 35 416 -25 32
-25 34 -25 243 l0 211 720 0 720 0 0 -211 c0 -209 0 -211 -25 -243 -37 -48
-55 -110 -55 -187 0 -183 122 -309 305 -317 106 -5 177 21 245 88 106 107 123
301 35 416 -25 32 -25 34 -25 243 l0 211 880 0 880 0 0 -211 c0 -209 0 -211
-25 -243 -37 -48 -55 -110 -55 -187 0 -183 122 -309 305 -317 106 -5 177 21
245 88 106 107 123 301 35 416 -25 32 -25 34 -24 246 l0 213 47 30 c25 17 60
50 77 73 l30 44 3 1426 c2 1019 0 1438 -8 1465 -14 49 -74 115 -125 138 -38
18 -90 19 -905 19 -822 0 -867 -1 -905 -19 -22 -10 -54 -34 -72 -52 -55 -58
-63 -91 -63 -259 l0 -150 -476 0 -476 0 24 33 c14 17 156 207 316 421 l292
389 0 219 0 218 -1040 0 -1040 0 0 -218z m1920 -44 l0 -101 -343 -458 -342
-458 -195 0 -195 0 -342 458 -343 458 0 101 0 102 880 0 880 0 0 -102z m2344
-712 c36 -15 56 -54 56 -112 l0 -34 -880 0 -880 0 0 34 c0 56 20 97 54 112 47
20 1601 20 1650 0z m56 -1540 c0 -894 -3 -1242 -11 -1266 -22 -62 8 -60 -914
-60 l-835 0 0 1280 0 1280 880 0 880 0 0 -1234z m-3600 975 l0 -100 -52 -15
c-70 -20 -240 -104 -303 -150 -72 -52 -181 -162 -227 -229 -41 -60 -98 -173
-98 -194 0 -10 -43 -13 -180 -13 l-180 0 0 354 c0 237 4 364 11 386 21 59 24
59 552 60 l477 0 0 -99z m480 17 l0 -83 -160 0 -160 0 0 83 0 82 160 0 160 0
0 -82z m1200 -318 l0 -400 -180 0 c-137 0 -180 3 -180 13 0 23 -61 141 -104
201 -51 72 -151 171 -221 222 -63 45 -233 130 -302 150 l-53 15 0 100 0 99
520 0 520 0 0 -400z m-1222 64 l22 -4 0 -230 0 -230 -160 0 -160 0 0 230 0
230 23 5 c50 11 219 11 275 -1z m-458 -254 l0 -210 -250 0 c-286 0 -267 -10
-194 100 69 104 180 203 298 262 58 29 122 56 139 57 4 1 7 -93 7 -209z m757
165 c135 -63 252 -161 328 -274 73 -111 93 -101 -194 -101 l-251 0 0 211 0
210 23 -6 c12 -4 55 -22 94 -40z m-1157 -615 l0 -80 -320 0 -320 0 0 80 0 80
320 0 320 0 0 -80z m320 0 l0 -80 -80 0 -80 0 0 80 0 80 80 0 80 0 0 -80z
m640 0 l0 -80 -240 0 -240 0 0 80 0 80 240 0 240 0 0 -80z m320 0 l0 -80 -80
0 -80 0 0 80 0 80 80 0 80 0 0 -80z m800 0 l0 -80 -320 0 -320 0 0 80 0 80
320 0 320 0 0 -80z m-2080 -400 l0 -160 -80 0 -80 0 0 -400 0 -400 -194 0
c-118 0 -206 4 -226 11 -60 21 -60 22 -60 594 l0 515 320 0 320 0 0 -160z
m320 0 l0 -160 -80 0 -80 0 0 160 0 160 80 0 80 0 0 -160z m640 0 l0 -160
-240 0 -240 0 0 160 0 160 240 0 240 0 0 -160z m320 0 l0 -160 -80 0 -80 0 0
160 0 160 80 0 80 0 0 -160z m800 -400 l0 -560 -240 0 -240 0 0 400 0 400 -80
0 -80 0 0 160 0 160 320 0 320 0 0 -560z m-640 -240 l0 -320 -720 0 -720 0 0
320 0 320 720 0 720 0 0 -320z m-1760 -640 l0 -160 -80 0 -80 0 0 160 0 160
80 0 80 0 0 -160z m1920 0 l0 -160 -80 0 -80 0 0 160 0 160 80 0 80 0 0 -160z
m2240 0 l0 -160 -80 0 -80 0 0 160 0 160 80 0 80 0 0 -160z m-4162 -350 c69
-42 94 -139 52 -208 -79 -130 -280 -74 -280 78 0 116 129 190 228 130z m1920
0 c130 -79 74 -280 -78 -280 -85 0 -150 65 -150 150 0 116 129 190 228 130z
m2240 0 c130 -79 74 -280 -78 -280 -152 0 -208 201 -78 280 43 26 113 26 156
0z"/>
<path d="M3280 3040 l0 -560 720 0 720 0 0 560 0 560 -720 0 -720 0 0 -560z
m1280 280 l0 -120 -305 0 -305 0 -46 -70 c-26 -38 -50 -70 -53 -70 -4 0 -31
50 -61 110 l-54 110 -148 0 -148 0 0 80 0 80 560 0 560 0 0 -120z m-835 -400
c55 -110 102 -200 106 -200 3 0 54 72 112 160 l107 160 255 0 255 0 0 -200 0
-200 -560 0 -560 0 0 240 0 240 93 0 92 0 100 -200z"/>
<path d="M3735 2301 c-87 -40 -135 -120 -135 -223 1 -142 97 -238 240 -238
144 0 240 96 240 240 0 104 -53 187 -142 224 -52 22 -153 20 -203 -3z m155
-171 c11 -11 20 -33 20 -50 0 -17 -9 -39 -20 -50 -11 -11 -33 -20 -50 -20 -17
0 -39 9 -50 20 -11 11 -20 33 -20 50 0 17 9 39 20 50 11 11 33 20 50 20 17 0
39 -9 50 -20z"/>
<path d="M4375 2301 c-87 -40 -135 -120 -135 -223 1 -142 97 -238 240 -238
144 0 240 96 240 240 0 104 -53 187 -142 224 -52 22 -153 20 -203 -3z m155
-171 c11 -11 20 -33 20 -50 0 -17 -9 -39 -20 -50 -11 -11 -33 -20 -50 -20 -17
0 -39 9 -50 20 -11 11 -20 33 -20 50 0 17 9 39 20 50 11 11 33 20 50 20 17 0
39 -9 50 -20z"/>
</g>
</svg>
